<svg viewBox="-672.3 -344.25 1497.25 1257.6" width="1497.25" height="1257.6" version="1.1" baseProfile="full" xmlns="http://www.w3.org/2000/svg" class="js-draw--autoresize"><style id="js-draw-style-sheet">path{stroke-linecap:round;stroke-linejoin:round;}text{white-space:pre;}</style><g class="js-draw-image-background js-draw-image-background-grid js-draw-image-background-grid-25"><path d="M824.95,913.35l0-1257.6l-1497.25,0l0,1257.6l1497.25,0" fill="#ffffff"></path><path d="M-672.65,-325l1497.95,0m-1497.95,25l1497.95,0m-1497.95,25l1497.95,0m-1497.95,25l1497.95,0m-1497.95,25l1497.95,0m-1497.95,25l1497.95,0m-1497.95,25l1497.95,0m-1497.95,25l1497.95,0m-1497.95,25l1497.95,0m-1497.95,25l1497.95,0m-1497.95,25l1497.95,0m-1497.95,25l1497.95,0m-1497.95,25l1497.95,0m-1497.95,25l1497.95,0m-1497.95,25l1497.95,0m-1497.95,25l1497.95,0m-1497.95,25l1497.95,0m-1497.95,25l1497.95,0m-1497.95,25l1497.95,0m-1497.95,25l1497.95,0m-1497.95,25l1497.95,0m-1497.95,25l1497.95,0m-1497.95,25l1497.95,0m-1497.95,25l1497.95,0m-1497.95,25l1497.95,0m-1497.95,25l1497.95,0m-1497.95,25l1497.95,0m-1497.95,25l1497.95,0m-1497.95,25l1497.95,0m-1497.95,25l1497.95,0m-1497.95,25l1497.95,0m-1497.95,25l1497.95,0m-1497.95,25l1497.95,0m-1497.95,25l1497.95,0m-1497.95,25l1497.95,0m-1497.95,25l1497.95,0m-1497.95,25l1497.95,0m-1497.95,25l1497.95,0m-1497.95,25l1497.95,0m-1497.95,25l1497.95,0m-1497.95,25l1497.95,0m-1497.95,25l1497.95,0m-1497.95,25l1497.95,0m-1497.95,25l1497.95,0m-1497.95,25l1497.95,0m-1497.95,25l1497.95,0m-1497.95,25l1497.95,0m-1497.95,25l1497.95,0m-1497.95,25l1497.95,0m-1497.95,25l1497.95,0m-1475.3-1244.6l0,1258.3m25-1258.3l0,1258.3m25-1258.3l0,1258.3m25-1258.3l0,1258.3m25-1258.3l0,1258.3m25-1258.3l0,1258.3m25-1258.3l0,1258.3m25-1258.3l0,1258.3m25-1258.3l0,1258.3m25-1258.3l0,1258.3m25-1258.3l0,1258.3m25-1258.3l0,1258.3m25-1258.3l0,1258.3m25-1258.3l0,1258.3m25-1258.3l0,1258.3m25-1258.3l0,1258.3m25-1258.3l0,1258.3m25-1258.3l0,1258.3m25-1258.3l0,1258.3m25-1258.3l0,1258.3m25-1258.3l0,1258.3m25-1258.3l0,1258.3m25-1258.3l0,1258.3m25-1258.3l0,1258.3m25-1258.3l0,1258.3m25-1258.3l0,1258.3m25-1258.3l0,1258.3m25-1258.3l0,1258.3m25-1258.3l0,1258.3m25-1258.3l0,1258.3m25-1258.3l0,1258.3m25-1258.3l0,1258.3m25-1258.3l0,1258.3m25-1258.3l0,1258.3m25-1258.3l0,1258.3m25-1258.3l0,1258.3m25-1258.3l0,1258.3m25-1258.3l0,1258.3m25-1258.3l0,1258.3m25-1258.3l0,1258.3m25-1258.3l0,1258.3m25-1258.3l0,1258.3m25-1258.3l0,1258.3m25-1258.3l0,1258.3m25-1258.3l0,1258.3m25-1258.3l0,1258.3m25-1258.3l0,1258.3m25-1258.3l0,1258.3m25-1258.3l0,1258.3m25-1258.3l0,1258.3m25-1258.3l0,1258.3m25-1258.3l0,1258.3m25-1258.3l0,1258.3m25-1258.3l0,1258.3m25-1258.3l0,1258.3m25-1258.3l0,1258.3m25-1258.3l0,1258.3m25-1258.3l0,1258.3m25-1258.3l0,1258.3m25-1258.3l0,1258.3" fill="none" stroke="#00000033" stroke-width=".7"></path></g><path d="M-443,-5l-2,1l-4,0l-2-4l0-6l2-6l3-5l6-3l2,2l1,5l-1,10l-8,8l-5,0l-2-4l2-5l1-2" fill="none" stroke="#292525" stroke-width="2.7"></path><path d="M-435,-21l-2,1l4,2l11,1l69-4l26,1l26,3l3,0" fill="none" stroke="#292525" stroke-width="3"></path><path d="M-296,-19l-2,1l-2,0l-1-2l1-2l2-2l2,0l1,2l1,3l-1,3l-2,2l-3,2l-2-2l2-3l6-4l3,1l0,3l-2,1l-3,0" fill="none" stroke="#292525" stroke-width="2.6"></path><path d="M-300,-150l0,250" fill="none" stroke="#292525" stroke-width="2.9"></path><path d="M-300,100l100,0" fill="none" stroke="#292525" stroke-width="2.6"></path><path d="M-300,-150l100,0" fill="none" stroke="#292525" stroke-width="2.4"></path><path d="M-197,-146l-2-2l-2-3l-2-1l-1-2l6-2l3,1l2,1l0,6l-2,2l-5,0l-1-3l1-1" fill="none" stroke="#292525" stroke-width="2.6"></path><path d="M-195,-176l-1-2l-3,29l0,25l-1,4" fill="none" stroke="#292525" stroke-width="2.5"></path><path d="M-196,-123l2,0l6-1l35-3l4,0" fill="none" stroke="#292525" stroke-width="2.7"></path><path d="M-196,-176l2,0l6-1l9,0l11-1l2,0" fill="none" stroke="#292525" stroke-width="2.2"></path><path d="M-196,77l0-2l1-2l0,5l-3,28l-2,7l0,11l3-3l5-1l10,0l9-1l13,0l2-1" fill="none" stroke="#292525" stroke-width="3.2"></path><path d="M-198,74l35-3l11,0l6,2l-2,2" fill="none" stroke="#292525" stroke-width="2.7"></path><path d="M-150,-150l0,200" fill="none" stroke="#292525" stroke-width="3.5"></path><path d="M-145,48l-2,0l-1,2l1,4l1,11l0,11l1-1" fill="none" stroke="#292525" stroke-width="2.9"></path><path d="M-162,121l3-1l12,0l5,1l7,0" fill="none" stroke="#292525" stroke-width="2.3"></path><path d="M-138,120l-2,4l-2,46l1,43l-1,7l-3-2l-1-4" fill="none" stroke="#292525" stroke-width="2.8"></path><path d="M-165,225l13-2l21,0l12,1l2,0l-2,1l-30,1l-22-2l-5-2l3-2l34,2l12,2l3,0" fill="none" stroke="#292525" stroke-width="3.2"></path><path d="M-168,-181l-4,0l1,2l3,1l26,0" fill="none" stroke="#292525" stroke-width="2.4"></path><path d="M-134,-241l1-5l1-3l0-3l0,2l-10,61l0,11l2,1" fill="none" stroke="#292525" stroke-width="2.7"></path><path d="M-127,-253l-3,0l-3,1l-2-2l0-3l1-4l3-2l3-1l3,1l2,2l0,5l-1,3l-4,2l-4,0l-4-2l0-2" fill="none" stroke="#292525" stroke-width="2.5"></path><path d="M-149,-317l-1-2l0,37l3,10l2,0l9-33l3-8l3-4l0,1" fill="none" stroke="#292525" stroke-width="2.8"></path><path d="M-123,-287l0,4l-1,5l0,6" fill="none" stroke="#292525" stroke-width="2.2"></path><path d="M-130,-288l3-1l6,0l4,1l3,2l1,3l0,3l-2,4l-11,3l-3,0" fill="none" stroke="#292525" stroke-width="2.1"></path><path d="M-109,-288l1,4l-1,4l0,7l1,1" fill="none" stroke="#292525" stroke-width="2"></path><path d="M-114,-288l2-1l8,0l4,2l3,3l1,5l-2,4l-3,3l-4,2l-7,0l-3-1l-1-1" fill="none" stroke="#292525" stroke-width="2.2"></path><path d="M-149,-21l-1-2l0-2l0,2l-1-2l0-2l4-2l1,2l0,3l-1,3l-2,2l-3,1l-2-1l0-3l2-4l3-3l3-2l1,2l0,3l-1,4l-2,3l-2-1l-1-2l0-3l3-2l2,0l2,3l-1,2l-4-2l0-2l1-1" fill="none" stroke="#292525" stroke-width="2.5"></path><path d="M-146,-23l-3-1l7,1l89,3" fill="none" stroke="#292525" stroke-width="2.8"></path><path d="M-44,-10l-3-4l1-4l5-5l5-3l5,0l2,3l0,4l-2,5l-4,4l-6,2l-4-1l-2-2l1-4" fill="none" stroke="#292525" stroke-width="2.5"></path><path d="M-518,-61l1-5l0-7l1-3l-3,10l-2,11l1,7l3,4l4-1l7-8l10-17l3-7l2-3l-1,2l-2,8l-4,11l-2,9l2,5l1,0" fill="none" stroke="#292525" stroke-width="2.8"></path><path d="M-488,-58l0,7l1,2l1,1" fill="none" stroke="#292525" stroke-width="2"></path><path d="M-482,-77l-1,4" fill="none" stroke="#292525" stroke-width="1.8"></path><path d="M-482,-51l5-6l2-2l-1,2l-1,5l-1,2l3-1l3-3l6-3l-2,5l4,2" fill="none" stroke="#292525" stroke-width="2.3"></path><path d="M-5,-65l1-2l-7,13l-3,10l-1,9l1,6l2-2l22-33l2-2l-3,7l-7,12l-1,6l1,3l2,0" fill="none" stroke="#292525" stroke-width="2.6"></path><path d="M20,-46l-2,2l-4,6l-2,5l1,3l4,0l3-4l2-5l0-5l-2-4l-4,0l0,3l3,2l5,0l4-4l-3,6l-1,4l1,4l3,2l4-2l9-12l-3,2l-3,5l0,4l4,1l5-5l10-14l3-7l2-3l-8,18l-2,13l1,3l2,0" fill="none" stroke="#292525" stroke-width="2.6"></path><path d="M176,-239l-1-2l-1,5l-1,10l0,11l1,9l3,6l4,1l3-4l4-8l3-14l1-8l1-4l0,2l-1,7l0,23l2,5l2,1l1-1" fill="none" stroke="#292525" stroke-width="3"></path><path d="M207,-216l0,14l1,2l1-1" fill="none" stroke="#292525" stroke-width="2.4"></path><path d="M208,-234l-1,2" fill="none" stroke="#292525" stroke-width="1.7"></path><path d="M212,-207l1-2l2-3l2-4l1-3l1,5l-1,6l0,5l1,2l2-5l3-6l2-5l1-2l1,2l0,15l2,1" fill="none" stroke="#292525" stroke-width="2.5"></path><path d="M298,-235l0,2l2,4l2,14l0,8l1,4l0-3" fill="none" stroke="#292525" stroke-width="2.4"></path><path d="M292,-233l0-2l2-2l7-2l6-1l7,2l4,4l2,4l-2,6l-5,3l-6,1l-7,0" fill="none" stroke="#292525" stroke-width="2.4"></path><path d="M327,-236l0-2l0,5l-4,20l0,9l0-2l-2-17l0-10l1-2l2,1l5,6l4,3l3,1l3-2l2-5l1-5l0-5l0,5l-2,15l0,8l2,4l3-1" fill="none" stroke="#292525" stroke-width="2.6"></path><path d="M353,-232l-2,4l-2,11l0,4l4,3l3-2l2-4l0-6l-3-7l-3-3l0-1" fill="none" stroke="#292525" stroke-width="3"></path><path d="M364,-228l3-4l2-2l-5,4l-4,5l0,4l3,3l5,2l4,2l3,3l-1,2l-4,4l-5,0l-4,1" fill="none" stroke="#292525" stroke-width="2.9"></path><path d="M405,-225l1-5l1-2l0,4l-3,26l0,2l1-2l3-30l2-4l3,4l4,8l3,9l4,6l4,3l4-4l2-16l0-11" fill="none" stroke="#292525" stroke-width="2.9"></path><path d="M442,-236l0,3l-5,19l-1,9l0,5l3-27l2-7l2-3l5,14l3,3l3-2l2-5l3-5l2-9l0,6l-4,20l0,10l2-1" fill="none" stroke="#292525" stroke-width="2.9"></path><path d="M472,-232l2-1l-2,2l-4,6l-1,6l1,8l4,1l4-2l5-6l2-8l0-7l-5-6l-2,0l-2,3l0,3l1,1" fill="none" stroke="#292525" stroke-width="3"></path><path d="M500,-239l-3,1l-3,2l-7,7l0,4l2,4l10,4l1,2l-4,3l-6,2l-3,0l-1,1" fill="none" stroke="#292525" stroke-width="3.2"></path><path d="M554,-235l-2,6l-2,11l0,14l4,10l3,0l5-6l6-11l5-16l1-6l-1,26l1,8l1,4" fill="none" stroke="#292525" stroke-width="3"></path><path d="M588,-214l3-1l-4,8l-1,5l1,2l3,1l4-4l1-4l0-5l-3-6l0,3l2,2l5-1l2-1l1-2l-1,4l-1,7l0,4l1,2l2,0l4-4l5-10l2,1l0,4l1,2l2-1l1-1" fill="none" stroke="#292525" stroke-width="2.6"></path><path d="M629,-227l-3,6l-3,18l1,4l2,1l0-1" fill="none" stroke="#292525" stroke-width="2.6"></path><path d="M621,-201l1,2l2,1l11-4l1-1" fill="none" stroke="#292525" stroke-width="2.3"></path><path d="M193,-140l0,2l4-1l4-4l4-5l7-11l-5,14l-2,11l0,16l2-1" fill="none" stroke="#292525" stroke-width="3"></path><path d="M298,-266l-2-6l2-8l6-9l14-6l8,2l7,5l7,6l10,3l13-2l5-5l1-2" fill="none" stroke="#292525" stroke-width="2.7"></path><path d="M365,-287l0-2l0,3l2,6l6,6l10,2l22-5l14-7l9-6l6-2l4,2l12,26l9,14l0,2" fill="none" stroke="#292525" stroke-width="3"></path><path d="M306,-318l2-2l4-3l14-14l2-3l-4,14l-1,7l1,5l0,1" fill="none" stroke="#292525" stroke-width="2.8"></path><path d="M335,-320l15,0" fill="none" stroke="#292525" stroke-width="2.4"></path><path d="M348,-327l3,2l9,3l2,2l0,2l-2,3l-10,8l0,1" fill="none" stroke="#292525" stroke-width="2.6"></path><path d="M380,-320l0-2l-4,1l-5,3l-2,5l1,4l5,2l3-1l3-3l1-4l-2-6l-2-2l0,2l6-2l5-4l4-6l3-6l1-3l-4,5l-6,20l0,10l2,1l2-2" fill="none" stroke="#292525" stroke-width="2.6"></path><path d="M395,-319l2,2l2-1l2-7l-2,0l-2,4l-2,8l1,4l3,2l3-2l2-1" fill="none" stroke="#292525" stroke-width="2.5"></path><path d="M409,-322l2-1l-1,2l-1,4l0,6l2,1l2-1l3-4l2-4l1-5l1-2l0,3l3-2l0-2l-1,2l-2,2l1,2l4-1l2-2l-3,9l-1,5l1,2l1-2" fill="none" stroke="#292525" stroke-width="2.7"></path><path d="M424,-341l3,2l4,2l3,0" fill="none" stroke="#292525" stroke-width="2.1"></path><path d="M428,-317l3,1l2-2l3-5l1-3l-2,2l-4,9l0,7l1,3l2,0l5-7l3-6l2-5l1-2l-1,2l0,16l1-2l1-4l3-6l2-2l1,2l0,10l3-4l1-4l2-5l1,2l-1,7l0,3l3-1l4-9l5-16l2-5l0-2l-2,4l0,2" fill="none" stroke="#292525" stroke-width="2.5"></path><path d="M463,-316l0,33l-2,5l-3,2l-4-2l-5-8l0-6l3-6l6-4l12-3l6,0l2,1" fill="none" stroke="#292525" stroke-width="3"></path><path d="M455,-148l0,2l1-2l3-4l3-5l5-6l1-2l0,7l-4,25l1,6l1,1" fill="none" stroke="#292525" stroke-width="3.2"></path><path d="M343,-145l2-2l0-2l-2,2l-6,9l-2,9l1,8l4,4l9-1l5-6l3-9l-1-9l-4-7l-9-3l-2,2l1,2" fill="none" stroke="#292525" stroke-width="3"></path><path d="M586,-154l-3,0l-3,2l-4,5l-2,7l1,8l6,8l7,0l7-4l5-8l0-14l-4-8l-6-2l-4,2l-1,5" fill="none" stroke="#292525" stroke-width="3"></path><path d="M204,-66l-2-1l-4,3l-5,8l-3,9l1,8l8,5l8-2l8-5l3-7l-3-9l-6-4l-6-1l-2,1l2,0" fill="none" stroke="#292525" stroke-width="2.8"></path><path d="M351,-51l2-2l3-4l5-5l9-11l-1,7l-5,19l1,8" fill="none" stroke="#292525" stroke-width="2.6"></path><path d="M469,-66l-2,0l-3,1l-5,3l-5,6l-2,8l5,8l7,2l8-2l7-5l4-10l-4-7l-6-5l-4-1l-2,1" fill="none" stroke="#292525" stroke-width="2.8"></path><path d="M574,-54l5-5l3-5l5-5l0,8l-4,20l0,9l1,5" fill="none" stroke="#292525" stroke-width="2.9"></path><path d="M-73,-19l-4,0l0-4l2,1l1,2l-1,3l-1,2l-1-5l2-3l3-1l3,1l0,2l-3,2l-2,1l0-2" fill="none" stroke="#c72c18" stroke-width="2.7"></path><path d="M-71,-21l0,23l2,17l0,2" fill="none" stroke="#c72c18" stroke-width="2.6"></path><path d="M-78,18l31,0" fill="none" stroke="#c72c18" stroke-width="2.5"></path><path d="M-77,29l-2,0l21,0l7-1l2,0" fill="none" stroke="#c72c18" stroke-width="2.6"></path><path d="M-79,17l7-1l9,0" fill="none" stroke="#c72c18" stroke-width="2.4"></path><path d="M-25,20l3,2l1-2l-4-3l-4,0l-5,1l-3,5l0,6l5,6l5,1l5-1" fill="none" stroke="#c72c18" stroke-width="2.8"></path><path d="M-16,37l3,1l2-2l3-4l1-4l0-6l-2-1l-3,1l-2,4l-2,9l1,4l4,1l3-2" fill="none" stroke="#c72c18" stroke-width="2.6"></path><path d="M-3,30L-1,32L1,33L0,31L-3,30L-6,32L-7,35L-7,37L-6,39L-2,39L0,35L0,30L4,30L8,31L10,32L8,31L5,30L4,32L2,39L3,42L6,42L8,40L10,37L10,31L10,37L13,38L15,37L15,36" fill="none" stroke="#c72c18" stroke-width="2.5"></path><path d="M24,32l-4-2l-3,0l-2,1l-2,3l0,4l2,5l3,0l3-3l3-5l2-7l1-10l1-4l-1,4l-3,21l0,2" fill="none" stroke="#c72c18" stroke-width="2.4"></path><path d="M-63,33l-1-2l0-2l0,2l1,10l2,9l1,8l2,7" fill="none" stroke="#c72c18" stroke-width="3.1"></path><path d="M-70,63l2-1l19-3l6,0l-5,0l-15,3l1,0" fill="none" stroke="#c72c18" stroke-width="3.4"></path><path d="M13,60l2,2l5,9l19,39" fill="none" stroke="#c72c18" stroke-width="2.7"></path><path d="M27,100l18,18l4,1l6-30l1,0" fill="none" stroke="#c72c18" stroke-width="3"></path><path d="M33,156l1-5l2-5l4-4l2,1l0,5l-1,6l0,2l2-2l7-9l1-2l0,5l1,7l2,3l2-1l1-2" fill="none" stroke="#c72c18" stroke-width="2.6"></path><path d="M67,147l2,2l-3-3l-2-1l-3,1l-3,6l0,3l2,2l3,0l3-2l3-5l1-3l0,3l1,5l1,2l2,0l2-8l-3-19l0-10l1-3l2-1l1,2" fill="none" stroke="#c72c18" stroke-width="2.2"></path><path d="M85,138l5-7l1-4l2-4l-1-2l-4,0l-10,13l-3,10l0,9l4,6l4-1l6-11l1-5l0,15l3,4" fill="none" stroke="#c72c18" stroke-width="2.5"></path><path d="M99,145l2-2l-1,2l0,3l1,2l2,0l2-3l1-2l0-2l-1,2l-1,4l0,5l1,3l3,0" fill="none" stroke="#c72c18" stroke-width="2.5"></path><path d="M121,142l1,2l1,3l1,2l-1-2l-4-3l-2-1l-2,2l-1,4l-1,6l2,4l4,0l3-2l3-5l0-5l0,4l1,4l3,0l2-2l1-2" fill="none" stroke="#c72c18" stroke-width="2.5"></path><path d="M141,141l4,8l0-4l-4-6l-2,0l-3,2l-2,7l0,5l2,3l3,2l4-2l2-5l3-6l2-6l1-7l2-8l-2,5l-3,12l0,8l1,5l3,3l1-1" fill="none" stroke="#c72c18" stroke-width="2.5"></path><path d="M156,141l0,2l4-2l0,11l-1,7l0,2l2-5l3-5l2-6l1-2l0,7l1,8l1,2l4-5l1-5l2-6l0-2l1,6l0,7l1,6l3,2" fill="none" stroke="#c72c18" stroke-width="2.6"></path><path d="M191,140l0-2l2-21l0-9l-1-5l-1,0" fill="none" stroke="#c72c18" stroke-width="2.2"></path><path d="M206,159l9-14l7-15l1-7l-2,0l-4,3l-3,5l0,5l4,6l4,2l3,0l2-1l-1,4l-3,5l-4,5l-2,2l1-5l3-4l3-3l2,3l1,6l2,5l1,2" fill="none" stroke="#c72c18" stroke-width="2.6"></path><path d="M241,147l1,3l2,3l1-3l-1-3l-2-2l-2,0l-2,3l-2,6l0,4l2,4l3-1l3-2l3-4l1-6l0-2l-1,3l0,5l1,4l3,0l2-2l3-5l1-7l1-3l-3,35l0,5l1,2l4-32l2-5l2,0" fill="none" stroke="#c72c18" stroke-width="2.5"></path><path d="M272,150l2,0l1,2l-1-4l-2-3l-2,0l-2,3l-2,5l0,5l3,3l2,0l2-3l2-5l1-8l1-2l-1,6l0,5l2,5l2-1l3-2l3-5l2-5" fill="none" stroke="#c72c18" stroke-width="2.6"></path><path d="M292,141l1,2l0,4l1,3l-1-4l-3-4l-3-1l-1,4l-2,5l1,8l2,3l3-1l6-4l3-9l0,4l2,7l3,0" fill="none" stroke="#c72c18" stroke-width="2.4"></path><path d="M306,125l-2,2l0,10" fill="none" stroke="#c72c18" stroke-width="1.7"></path><path d="M319,123l0-4l-10,37l1,5l3,0" fill="none" stroke="#c72c18" stroke-width="2.5"></path><path d="M322,142l0,5l1,3l1,2l0-4l-2-3l-4-2l-4,3l-2,5l-1,4l2,4l5,0l4-3l2-3l1-3l4,8l3,4l2,1" fill="none" stroke="#c72c18" stroke-width="2.8"></path><path d="M358,149l0,3l3,1l6,1l17,0" fill="none" stroke="#c72c18" stroke-width="3.2"></path><path d="M377,140l11,6l4,3l1,4l-4,10l-10,11l1,1" fill="none" stroke="#c72c18" stroke-width="3.1"></path><path d="M432,142l-1-2l-6,11l-3,9l3,9l7,1l9-4l4-3" fill="none" stroke="#c72c18" stroke-width="2.8"></path><path d="M421,152l-3,0l-4-1l-3-3l2-8l7-5l6-3l5,1l5,8l4,4l5,3l6-2l6-4l4-6" fill="none" stroke="#c72c18" stroke-width="3"></path><path d="M461,163l-5,16l-1,5l1,3" fill="none" stroke="#c72c18" stroke-width="2.6"></path><path d="M461,163l-2,1l-2,0l5-4l6-3l6-1l2,2l1,3l-2,4l-2,3l-6,4l-5,1l-3,0l3-1" fill="none" stroke="#c72c18" stroke-width="2.9"></path><path d="M483,161l0,3l-6,17l-3,6l0,3l0-1" fill="none" stroke="#c72c18" stroke-width="2.8"></path><path d="M475,175l12,0l4-1" fill="none" stroke="#c72c18" stroke-width="2.4"></path><path d="M492,160l0,5l-1,5l-2,7l-1,6l0,5l1-1" fill="none" stroke="#c72c18" stroke-width="2.8"></path><path d="M502,164l0,2l-1,6l-2,6l-2,4l0,3l2,0l10-3l5-1l4,0" fill="none" stroke="#c72c18" stroke-width="3.2"></path><path d="M543,166l1,2l-4-3l-6-7l-1-9l2-10l6-9l8-9l1-2" fill="none" stroke="#c72c18" stroke-width="2.6"></path><path d="M560,140l2-2l9-12l1-2l-1,6l-4,11l-1,6l0,4" fill="none" stroke="#c72c18" stroke-width="2.6"></path><path d="M568,165l1-2l8-20l5-10l0,1" fill="none" stroke="#c72c18" stroke-width="2.3"></path><path d="M581,151l2-4l4-2l3-2l2,1l-2,5l-3,6l-5,6l-3,3l5,0l5-2l5,0l5,1" fill="none" stroke="#c72c18" stroke-width="2.5"></path><path d="M607,147l5,0l13-2l1,0" fill="none" stroke="#c72c18" stroke-width="2.2"></path><path d="M618,139l2,1l7,2l3,0l2,1l0,2l-2,2l-6,8l-1,3" fill="none" stroke="#c72c18" stroke-width="2.5"></path><path d="M649,135l9-10l9-14l1-3l-1,3l-10,27l1,6" fill="none" stroke="#c72c18" stroke-width="2.6"></path><path d="M657,156l2-2l12-22l2-5l0-2" fill="none" stroke="#c72c18" stroke-width="2.3"></path><path d="M670,146l1-2l3-2l3-1l1,2l-4,9l-4,5l-2,3l8,1l6-1l5,0l1-1" fill="none" stroke="#c72c18" stroke-width="2.7"></path><path d="M691,108l2,2l3,5l3,8l2,15l-1,11l-3,9l-4,8" fill="none" stroke="#c72c18" stroke-width="2.9"></path><path d="M531,88l3,0l15-3l7,0l4,1" fill="none" stroke="#c72c18" stroke-width="2.3"></path><path d="M565,83l20-27l2-4l1-1" fill="none" stroke="#c72c18" stroke-width="2.5"></path><path d="M582,53l3,0l15-2l35-1" fill="none" stroke="#c72c18" stroke-width="2.5"></path><path d="M638,49l1,4l12,20l11,11l1,0" fill="none" stroke="#c72c18" stroke-width="2.7"></path><path d="M662,82l5,0l6-1l11,0l6-1l4,0" fill="none" stroke="#c72c18" stroke-width="2.4"></path><path d="M574,70l0-2l2,1l19,0" fill="none" stroke="#c72c18" stroke-width="2.4"></path><path d="M581,59l0-2l-1,3l0,5l-1-2l0-2l-2-1l-1,4l0,4l1,4l1,2l1-6l-1-6l0-8l0,5l2,11l0-3l-1-6l0-3l0,2l-1,8l1,4l0,2l1,0" fill="none" stroke="#c72c18" stroke-width="3"></path><path d="M566,69l4-1l13,0l-6-2l-3,0l2,1" fill="none" stroke="#c72c18" stroke-width="2.8"></path><path d="M655,62l-4,2l1-2l0-4l-1,9l0,14l1-7l0-12l0,14" fill="none" stroke="#c72c18" stroke-width="2.7"></path><path d="M641,70l6-1l5,0l5,1l4,0l2,1l-2-1l-3-1l-3,0l-4-1l-2,0l2,0l5,1" fill="none" stroke="#c72c18" stroke-width="2.7"></path><path d="M577,48l0-4l2-9l4-6l3-2l3,0l2,2l4,3l3,1l2,1l3-1l3-4l2-2l2-1" fill="none" stroke="#c72c18" stroke-width="2.8"></path><path d="M610,27l2,5l3,4l5,2l5,1l6,0l17-9l6-2l4,0l4,4l2,6l3,5l1,3l1,2" fill="none" stroke="#c72c18" stroke-width="2.8"></path><path d="M614,4L612,5L609,8L608,14L610,18L614,20L619,21L625,18L627,15" fill="none" stroke="#c72c18" stroke-width="2.5"></path><path d="M604,8L602,8L601,6L601,4L605,0L609,-1L614,-1L619,1L625,5L629,5L632,3" fill="none" stroke="#c72c18" stroke-width="2.5"></path><path d="M654,32l3-2l2,3l0,5l1,5l0,16l-1,0" fill="none" stroke="#c72c18" stroke-width="2.9"></path><path d="M587,55l-1-2l0-2l-1-2l1-4l1-2l1-3" fill="none" stroke="#c72c18" stroke-width="1.9"></path><path d="M656,65l0-16l1-2l1,0" fill="none" stroke="#c72c18" stroke-width="2.3"></path><path d="M484,196l0,6l-2,20l0,8l0-2" fill="none" stroke="#c72c18" stroke-width="2.9"></path><path d="M480,221l0,5l1,4l2,5l3-2l4-5l4-6l1-2l-1-1" fill="none" stroke="#c72c18" stroke-width="3"></path><path d="M487,197l0-2l-6,5l-4,5l-2,3l13-13l1,5l0,5l2,4l3,0" fill="none" stroke="#c72c18" stroke-width="2.9"></path><path d="M451,250l1,0" fill="none" stroke="#c72c18" stroke-width="1.6"></path><path d="M453,250l0-2l0,20l1,4l1,0" fill="none" stroke="#c72c18" stroke-width="2.9"></path><path d="M450,253l1-2l3-1l9,0l4,1l1,3l-2,1l-4,1l-6,1l-3,0" fill="none" stroke="#c72c18" stroke-width="2.6"></path><path d="M480,248l0-2l-3,10l0,10l1,3l2,1l9-2l2,0" fill="none" stroke="#c72c18" stroke-width="2.8"></path><path d="M506,249l0,2l-3,10l1,3l1,2l1,1" fill="none" stroke="#c72c18" stroke-width="2.6"></path><path d="M502,262l3-1l5-1l9,0" fill="none" stroke="#c72c18" stroke-width="2.2"></path><path d="M521,251l0,6l-1,7l0,5" fill="none" stroke="#c72c18" stroke-width="2.1"></path><path d="M543,277l-2-8l0-15l2-7l3-5l2-1" fill="none" stroke="#c72c18" stroke-width="2.4"></path><path d="M552,269l2,0l10-7l4-5l1-5l-1-4l-3-1l-6,5l-3,7l0,7l4,4l7,1l6-2" fill="none" stroke="#c72c18" stroke-width="2.4"></path><path d="M574,265l4-2l0-2l-4,4l-2,4l0,4l4,2l4,0l3-3l1-3l0-7l-2-2l-2-1l-1,2l-1,3l3,3l3,0l2-1l2-2l1-3l-2,4l0,4l2,4l2,0l3-1l1-2l2-5l0-2l0,5l1,3l3,0l1-2l1-5l1-3l3-1" fill="none" stroke="#c72c18" stroke-width="2.6"></path><path d="M613,263l4-1l10,0" fill="none" stroke="#c72c18" stroke-width="2"></path><path d="M620,254l4,2l2,2l1,3l0,2l-2,2l-1,2l-2,2" fill="none" stroke="#c72c18" stroke-width="2.5"></path><path d="M641,271l2-2l7-10l5-6l3-9l0-2l-4,4l-5,11l-2,6l0,5l2,2l2,0l5-4l3-4l2-2l0,10l4,1l1-1" fill="none" stroke="#c72c18" stroke-width="2.5"></path><path d="M671,260l0,6l1,3l3,0" fill="none" stroke="#c72c18" stroke-width="2.2"></path><path d="M681,250l-2-2l-2,2" fill="none" stroke="#c72c18" stroke-width="1.9"></path><path d="M684,266l2,2l-1-3l-2-1l-3,0l-3,3l-1,4l1,2l3,1l5-1l3-3l1-3l0-3l-2,0l-2,3l0,11l1,7l1,4l0,3l-2,1l-6-2l-2-4l-1-4l1-3l11-11l6-5l4-5l3-6l1-6l0-5l-4,2l-3,6l-4,11l1,6l2,4l3,1l4-4l4-8l1,6l0,6l2,0l1-1" fill="none" stroke="#c72c18" stroke-width="2.5"></path><path d="M713,236l0-2l3,0l3,4l4,12l1,9l-1,7l-2,6l-6,6" fill="none" stroke="#c72c18" stroke-width="2.8"></path><path d="M460,317l-9,17l0,6l3,3l4-1l7-5l5-5" fill="none" stroke="#c72c18" stroke-width="2.7"></path><path d="M445,328l-3-3l0-4l3-6l6-5l6-2l6,3l4,10l2,3l4-1l4-3l4-4" fill="none" stroke="#c72c18" stroke-width="2.9"></path><path d="M479,342l-1,4l-4,8l0,2" fill="none" stroke="#c72c18" stroke-width="2.2"></path><path d="M473,340l4-2l5-1l3,2l1,2l0,2l-2,3l-3,1l-3,0l-2,1" fill="none" stroke="#c72c18" stroke-width="2.6"></path><path d="M493,341l-1,3l-3,4l-2,5l2,2l4,0l5-2l4-1" fill="none" stroke="#c72c18" stroke-width="2.8"></path><path d="M509,343l-2,7l0,2l2,0l6-1l2,0" fill="none" stroke="#c72c18" stroke-width="2.5"></path><path d="M514,347l8-2l5,0" fill="none" stroke="#c72c18" stroke-width="2"></path><path d="M524,340l-3,2l-1,4l-2,4l-1,4l0,3" fill="none" stroke="#c72c18" stroke-width="2.6"></path><path d="M513,343l0-4l-1,3l-6,11l-1,3l0,1" fill="none" stroke="#c72c18" stroke-width="2.9"></path><path d="M535,349l15-4l2,0l0,1" fill="none" stroke="#c72c18" stroke-width="2.8"></path><path d="M534,340l6,0l11-1l5-1l3,0" fill="none" stroke="#c72c18" stroke-width="2.5"></path><path d="M549,324l0,3l-9,24l0,4l1,2" fill="none" stroke="#c72c18" stroke-width="2.8"></path><path d="M545,296l-2-1l0-4l2-2l2-1l3,0l2,1l1,4l-1,3l-2,3l-2,2l-1,2l2,2l1,2" fill="none" stroke="#c72c18" stroke-width="2.9"></path><path d="M549,312l2,0l-4,2l2-2l1,1" fill="none" stroke="#c72c18" stroke-width="2.5"></path><path d="M585,323l-4,4l-6,11l1,5l6,2l6-1l5-4" fill="none" stroke="#c72c18" stroke-width="2.6"></path><path d="M572,328l0-6l3-3l4-3l5-2l4,1l2,3l1,3l2,1l4-4l2-3l1-2" fill="none" stroke="#c72c18" stroke-width="2.6"></path><path d="M604,342l0,4l-1,4l-2,5l0,2" fill="none" stroke="#c72c18" stroke-width="2.4"></path><path d="M601,341l3-1l7,0l2,3l-1,2l-2,2l-4,1l-5,0" fill="none" stroke="#c72c18" stroke-width="2.5"></path><path d="M619,341l-1,3l-3,4l-1,5l0,2" fill="none" stroke="#c72c18" stroke-width="2.4"></path><path d="M612,350l3,0l6-1l5,0" fill="none" stroke="#c72c18" stroke-width="2.2"></path><path d="M627,341l0,3l-3,10l0,3" fill="none" stroke="#c72c18" stroke-width="2.4"></path><path d="M637,343l-1,3l-2,3l-3,3l-1,3l2,3l5,1l6-1l5,0l-1,1" fill="none" stroke="#c72c18" stroke-width="3.1"></path><path d="M554,367l-3,6l0,5l3,7l2,3l10,6l8,1l6,0l2,1" fill="none" stroke="#c72c18" stroke-width="3.2"></path><path d="M580,381l9,6l2,3l-1,3l-4,3l-5,5l-3,2l1,1" fill="none" stroke="#c72c18" stroke-width="3.2"></path><path d="M602,406l0-3l3-7l2-7l6-11l2-1l1,2l0,5l1,7l0,6l1,5" fill="none" stroke="#c72c18" stroke-width="3.1"></path><path d="M606,397l2-1l9-2l5,0" fill="none" stroke="#c72c18" stroke-width="2.4"></path><path d="M627,385l1-3l2-2l0,2l-4,14l-1,6l0-6l1-7l3-6l3,3l4,11l3,3l2-5l2-15l0-2l0,2l-1,2" fill="none" stroke="#c72c18" stroke-width="2.8"></path><path d="M650,391l1-3l-2-2l-2,1l-3,4l-1,6l-1,4l5,2l4-2l5-4l2-6l0-9l-3-3l-3,1l-2,3l-1,6l1,3" fill="none" stroke="#c72c18" stroke-width="2.9"></path><path d="M674,402l1-1" fill="none" stroke="#c72c18" stroke-width="1.6"></path><path d="M676,386l0-4l0,2" fill="none" stroke="#c72c18" stroke-width="2.6"></path><path d="M674,399l2,0l0,2l1-1" fill="none" stroke="#c72c18" stroke-width="2.3"></path><path d="M697,402l5-1l7-2l19,0" fill="none" stroke="#c72c18" stroke-width="2.6"></path><path d="M733,382l1-3l-11,20l-1,4l3-2" fill="none" stroke="#c72c18" stroke-width="2.6"></path><path d="M735,379l2-1l26,0" fill="none" stroke="#c72c18" stroke-width="2.6"></path><path d="M761,377l5,5l3,6l4,5l3,3l2,1" fill="none" stroke="#c72c18" stroke-width="2.6"></path><path d="M775,398l3-1l5,0l5,1l15,0l1,1" fill="none" stroke="#c72c18" stroke-width="2.7"></path><path d="M566,401l-3,2l-4,14l-1,12l1,6l3,3l6,0l9-2l3-2l1,0" fill="none" stroke="#c72c18" stroke-width="3.2"></path><path d="M579,425l-2-1l3,3l6,4l3,3l1,2l-7,5l-5,2l-2,2l1,0" fill="none" stroke="#c72c18" stroke-width="3.1"></path><path d="M601,443l-2-4l0-4l3-8l2-3l2,3l0,19l1,3l2-2l10-15l2-2" fill="none" stroke="#c72c18" stroke-width="3.4"></path><path d="M630,431l-2,2l-4,5l-4,4l-1,2l2,2l3,0l5,1l3-1l2,0" fill="none" stroke="#c72c18" stroke-width="2.9"></path><path d="M629,437l6,0l6,1l2,0" fill="none" stroke="#c72c18" stroke-width="2.5"></path><path d="M633,431l0-2l2-2l5-1l2,0l3,1" fill="none" stroke="#c72c18" stroke-width="2.7"></path><path d="M655,445l2,0l0-1" fill="none" stroke="#c72c18" stroke-width="3.1"></path><path d="M659,431l1-2l0,2" fill="none" stroke="#c72c18" stroke-width="2.3"></path><path d="M604,426l0,2l-1,4l-2,4l-2,5l-2,3l-1,3l1-1" fill="none" stroke="#c72c18" stroke-width="3.1"></path><path d="M674,451l5-2l18,0" fill="none" stroke="#c72c18" stroke-width="2.8"></path><path d="M699,449l0-8l1-3l0-2l1-3l0-2l1-3l1-2l2-2l2-1l3-1l2,0l0,1" fill="none" stroke="#c72c18" stroke-width="3.6"></path><path d="M712,425l23,0l2-1l0,2l-1,0" fill="none" stroke="#c72c18" stroke-width="3.1"></path><path d="M741,425l1,2l0,2l2,1l6,6l2,1l3,1l4,2l2,0l2,1l2,0l3,1l2,1l2,0l2,1l2,0l4,2l4,0l2,1l2,0l2,1l12,0l2,1l4,0l3-1l8,0l2-1l2,1l-2,0" fill="none" stroke="#c72c18" stroke-width="3.9"></path><path d="M724,389l0,2l5,0l4,2l-2-1l-1,0" fill="none" stroke="#c72c18" stroke-width="2.9"></path><path d="M764,388l12,0l-3,1l-1,0" fill="none" stroke="#c72c18" stroke-width="2.7"></path><path d="M772,381l-1,2l0,5l1,4l1,1" fill="none" stroke="#c72c18" stroke-width="2.7"></path><path d="M730,385l-2,0l1,3l0,3l2,2l2,0" fill="none" stroke="#c72c18" stroke-width="2.4"></path><path d="M701,435l-2,0l6,0l2-1" fill="none" stroke="#c72c18" stroke-width="2.3"></path><path d="M701,432l2-2l1,2l0,3l1,1" fill="none" stroke="#c72c18" stroke-width="2.8"></path><path d="M765,438l-1,4l0,2l1-4l0-1" fill="none" stroke="#c72c18" stroke-width="2.9"></path><path d="M758,439l15,0" fill="none" stroke="#c72c18" stroke-width="2.4"></path><path d="M769,434l-1,4l0,9l0-6l1-3l0-2l0,7l1,2l0,1" fill="none" stroke="#c72c18" stroke-width="3.2"></path><path d="M769,432l-1,7l0,8l0-5" fill="none" stroke="#c72c18" stroke-width="2.7"></path><path d="M756,440l4-1l11,0l9-1l3-1l-2,1" fill="none" stroke="#c72c18" stroke-width="2.8"></path><path d="M-16,285l-3,5l-3,7l0,7l2,2l3,1l6-2l4-3" fill="none" stroke="#c72c18" stroke-width="2.7"></path><path d="M-32,295l0-6l1-9l3-5l4-3l5,1l3,3l3,4l5,3l5,1l4-1l4-4l1-2" fill="none" stroke="#c72c18" stroke-width="2.6"></path><path d="M-2,306L-3,308L-4,311L-5,316L-5,329" fill="none" stroke="#c72c18" stroke-width="2.8"></path><path d="M-9,312L-3,309L0,308L2,308L4,309L3,312L-3,315" fill="none" stroke="#c72c18" stroke-width="2.3"></path><path d="M20,332l-2-4l-2-3l-2-4l-2-6l0-6l3-10l4-8" fill="none" stroke="#c72c18" stroke-width="2.6"></path><path d="M23,300l-1,2l-2,7l1,2l2,1l4-1l1-1" fill="none" stroke="#c72c18" stroke-width="2.8"></path><path d="M31,300l0,11" fill="none" stroke="#c72c18" stroke-width="2.3"></path><path d="M29,308l2-1l5,0" fill="none" stroke="#c72c18" stroke-width="1.8"></path><path d="M37,300l0,10" fill="none" stroke="#c72c18" stroke-width="2.1"></path><path d="M41,307l0,5l1,2l-1,2" fill="none" stroke="#c72c18" stroke-width="2.4"></path><path d="M28,319l-2,1l-2,8l1,2l2,0l1-1" fill="none" stroke="#c72c18" stroke-width="2.5"></path><path d="M26,325l7,0" fill="none" stroke="#c72c18" stroke-width="2.2"></path><path d="M32,320l0,3l-1,3l0,3l1,1" fill="none" stroke="#c72c18" stroke-width="2.2"></path><path d="M40,319l0,2l-1,2l0,3l-1,2l5,0l3-1" fill="none" stroke="#c72c18" stroke-width="2.4"></path><path d="M46,290l0,2l6,9l3,6l1,6l0,6l-1,7l-5,9" fill="none" stroke="#c72c18" stroke-width="2.8"></path><path d="M63,295l3,0l3-1l3,1l2,0l1,1" fill="none" stroke="#c72c18" stroke-width="2.2"></path><path d="M60,287l17,0" fill="none" stroke="#c72c18" stroke-width="2.1"></path><path d="M111,252l1-2l0-5l-3-3l-3,0l-6,4l-7,8l-5,8l0,7l8,5l8-1l6-3" fill="none" stroke="#c72c18" stroke-width="3"></path><path d="M112,279l1-3l5-5l3-4l4-4l2-5l-3,0l-4,4l-3,4l-1,5l3,5l4,1l5-1" fill="none" stroke="#c72c18" stroke-width="2.7"></path><path d="M131,271l2,1l-1-2l-2,2l-1,3l1,2l2,0l2-4l0-7l0,3l2,1" fill="none" stroke="#c72c18" stroke-width="2.2"></path><path d="M142,270l2,1l-3-2l-3,0l-1,3l-1,2l4,2l2-1l1-3l0,3l3,2l1-1" fill="none" stroke="#c72c18" stroke-width="2.4"></path><path d="M151,268l2,3l2,1l-2-3l-2-1l-3,2l-1,2l1,2l2,0l3-1l2-3l2-7l1-8l1-3l0,4l-2,7l-1,9l1,3l3,0l1-1" fill="none" stroke="#c72c18" stroke-width="2.4"></path><path d="M178,255l-2,3l-9,12l-1,2l6,2l14-3l3-1l-1-1" fill="none" stroke="#c72c18" stroke-width="3.4"></path><path d="M178,254l4,3l2,4l1,7l2,3l2,1l1-1" fill="none" stroke="#c72c18" stroke-width="2.7"></path><path d="M194,241l2-2l2,1l2,4l4,23l2,5l2,3l2,0l2-2l9-28l1-5l1-2" fill="none" stroke="#c72c18" stroke-width="3.2"></path><path d="M234,275l-2-9l0-10l2-5l1-1" fill="none" stroke="#c72c18" stroke-width="2.8"></path><path d="M243,247l-2,2l-2,5l0,5l3,1l3-1l2-1" fill="none" stroke="#c72c18" stroke-width="2.4"></path><path d="M252,249l0,10" fill="none" stroke="#c72c18" stroke-width="2.4"></path><path d="M253,253l5,0" fill="none" stroke="#c72c18" stroke-width="1.7"></path><path d="M259,244l0,14" fill="none" stroke="#c72c18" stroke-width="2.1"></path><path d="M265,252l0,9" fill="none" stroke="#c72c18" stroke-width="2.1"></path><path d="M241,265l1,2l0,5l1,2" fill="none" stroke="#c72c18" stroke-width="2.3"></path><path d="M242,269l4,0l3-1" fill="none" stroke="#c72c18" stroke-width="2"></path><path d="M247,264l1,3l0,8" fill="none" stroke="#c72c18" stroke-width="2.3"></path><path d="M255,264l0,4l-1,3l0,3l2,1l6-2l2,1" fill="none" stroke="#c72c18" stroke-width="2.6"></path><path d="M274,240l3,20l-2,11l-3,7l-3,3" fill="none" stroke="#c72c18" stroke-width="2.8"></path><path d="M86,285l100-4l81,6l3-3" fill="none" stroke="#c72c18" stroke-width="3.5"></path><path d="M149,298l0,2l-2,5l-2,14l0,2l0-1" fill="none" stroke="#c72c18" stroke-width="2.5"></path><path d="M140,303l3-2l6-1l11,0l4,1" fill="none" stroke="#c72c18" stroke-width="2.2"></path><path d="M137,322l3-2l13-2l5,1" fill="none" stroke="#c72c18" stroke-width="2.3"></path><path d="M165,323l0-4l-2-1l-2,2l-2,3l-1,4l0,2l1,2l4-1l2-3l1-2l1-3l0,4l2,2l3-3l0-4l0,2l-1,3l1,2l2,1l2-2l1-3l0-3l1-2l2,1" fill="none" stroke="#c72c18" stroke-width="2.7"></path><path d="M187,321l1,2l-6,0l-1,4l0,2l2,1l4-4l2-4l0-2l-2,3l0,7l4,8l2,5l1,6l-1,2l-2,0l-4-2l-5-6l-1-3l2-2l3-1" fill="none" stroke="#c72c18" stroke-width="2.7"></path><path d="M202,323l0,10l-1,3" fill="none" stroke="#c72c18" stroke-width="2.3"></path><path d="M218,333l-2-2l0-7l-1-6l1-5l3-4l4-4" fill="none" stroke="#c72c18" stroke-width="2.5"></path><path d="M233,308l-1,3l-2,3l-1,4l4,2l3,1l2-1l0-1" fill="none" stroke="#c72c18" stroke-width="2"></path><path d="M240,313l0,5l1,1" fill="none" stroke="#c72c18" stroke-width="2"></path><path d="M242,315l7,0" fill="none" stroke="#c72c18" stroke-width="1.8"></path><path d="M249,309l1,3l0,7" fill="none" stroke="#c72c18" stroke-width="1.9"></path><path d="M254,316l0,6" fill="none" stroke="#c72c18" stroke-width="1.8"></path><path d="M235,322l-1,4l0,2l-1,3l0,3" fill="none" stroke="#c72c18" stroke-width="2"></path><path d="M232,329l7,0" fill="none" stroke="#c72c18" stroke-width="1.7"></path><path d="M240,326l1,2l0,5" fill="none" stroke="#c72c18" stroke-width="1.9"></path><path d="M247,323l0,2l-2,7l3,1l6,0l2-1" fill="none" stroke="#c72c18" stroke-width="2"></path><path d="M266,303l3,3l4,11l1,8l-1,7l-4,8l-4,2" fill="none" stroke="#c72c18" stroke-width="2.7"></path><path d="M-646.4,214.7l.5-1.5l.4-3.8l-1.9-3.4l-4.8-2.4l-8.2,1.9l-2.9,3.9l.5,5.7l3.9,4.9l19.2,11l1,2.9l-2.9,2.9l-9.2,4.8l-7.2,1l-4.3-1l-1.5-3.8l3.4-7.3" fill="none" stroke="#292525" stroke-width="1.5"></path><path d="M-634.9,225.2l-.5,2l-.9,5.7l.5,3.9l1.4,2.4l2.4,0l1.5-1" fill="none" stroke="#292525" stroke-width="1.2"></path><path d="M-627.7,216.6l-1.4-1.9l-1-1l-.4,1l-.5,.9" fill="none" stroke="#292525" stroke-width="1.1"></path><path d="M-619,223.8l1,.5l.9,1.4l1,2l1,1.4l-2-1.4l-3.3-1.5l-3.9,0l-2.4,1.9l-1.4,4.4l0,4.3l3.3,3.8l3.9-1.4l4.8-3.8l3.4-5.3l1.9-6.3l.9-17.3l-4.3,23.6l0,5.7l1.5,2.9l1.4,0" fill="none" stroke="#292525" stroke-width="1.5"></path><path d="M-609.9,232.5l2,0l3.3-2.9l2.9-3.4l1-3.4l0-2.8l-2.4-1l-2.4,2.9l-1.9,6.2l-.5,6.8l1.9,4.8l3.4,.9" fill="none" stroke="#292525" stroke-width="1.5"></path><path d="M-591.1,238.2l1,1l1.9-3.4l3.4-7.2l2.9-4.3l.4,.9l-.4,3.9l0,7.7l.9,2.9l1.5,.9l1.4-1.4l3.4-9.1l1.4-4.9l.5,1.5l1.9,9.1l1.9,2.4l.5,0" fill="none" stroke="#292525" stroke-width="1.5"></path><path d="M-559.3,228.6l.9,1.9l1,1l-.5-1l-1.9-1.4l-2.4-1l-1.9,.5l-1.5,3.9l0,3.8l1.5,2.9l2.4,1.4l1.9-.4l1.4-4.4l-.4-2.9l-2-2.8l-1.4-2.4l0-1l4.3,0l3.4-1.5l3.4-2.8l3.3-6.3l1.5-6.7l-.5-1l-1.9,3.9l-4.9,14.4l-1.4,6.2l0,4.4l1.9,1.4" fill="none" stroke="#292525" stroke-width="1.4"></path><path d="M-547.8,231.5l1.5,1l1.9-.5l1.9-1.5l1.9-2.8l1.5-4.4l-1-1.4l-2.4,0l-2.4,2.4l-2.4,4.3l0,7.7l2.4,3.4l2.9,.5l1.9-1" fill="none" stroke="#292525" stroke-width="1.4"></path><path d="M-522.8,238.2l1-.4l1.4-3.9" fill="none" stroke="#292525" stroke-width="1.1"></path><path d="M-521.3,219.5l0,1.4" fill="none" stroke="#292525" stroke-width="1.1"></path><path d="M-668.1,254.6l-1.4,.5l-2,0l2-.5l104.4-3.4l12,1l5.8,1" fill="none" stroke="#292525" stroke-width="1.6"></path><path d="M-620.4,294.5l-1,1l-1.9,3.9l-1.5,4.3l-.5,4.3l1.5,2.9l4.8,1l3.4-1.5l.9-.9" fill="none" stroke="#292525" stroke-width="1.4"></path><path d="M-625.7,298.9l-2.4,1.4l-1-.5l0-2.4l.5-3.3l1.9-3.9l3.4-4.3l1.9-.5l2.4,2.4l6.3,9.6l2.8,1.5l2.9-.5l2-2.4l1.4-2.9l0-2.4l0,1" fill="none" stroke="#292525" stroke-width="1.4"></path><path d="M-600.2,308l1.9,.5l4.8,.5l5.8,0" fill="none" stroke="#292525" stroke-width="1.2"></path><path d="M-599.8,302.2l1,0l2.4-.4l7.7,0l5.8,.9" fill="none" stroke="#292525" stroke-width="1.3"></path><path d="M-551.6,279.1l.9,1l1,0l0-2.9l-2.9-2.4l-3.4,0l-3.8,2.4l-3.9,4.3l-1.4,7.7l2.4,3.4l4.8,1.9l4.8,.5l3.9-1.4l2.4-1.5" fill="none" stroke="#292525" stroke-width="1.4"></path><path d="M-537.2,285.4l0-1l1-.9l.9-.5l.5,1.4l-.9,1l-1,.5l-1,0l.5-1.5l1-.9l.9,0l0,.9" fill="none" stroke="#292525" stroke-width="1.2"></path><path d="M-526.6,272.4l0,1l.5,2.9l0,5.2l.5,5.3l1.4,5.3l1.4,1l1,0l2.4-2.4l2.9-4.3l2.9-8.7l.9-3.9l0-1.4l-1.9,1.4" fill="none" stroke="#292525" stroke-width="1.4"></path><path d="M-565.1,298.4l13.5,0l22.1-1.9l15.9,.9l3.4,1l-.5,.5" fill="none" stroke="#292525" stroke-width="1.7"></path><path d="M-538.6,308l0,1.9l-.5,3.4l-1,3.4l0,2.4l1,.5l.9-1" fill="none" stroke="#292525" stroke-width="1.3"></path><path d="M-545.4,307.5l-.5-.9l1.5-.5l13,0l2.9,.5" fill="none" stroke="#292525" stroke-width="1.3"></path><path d="M-545.4,318.6l5.8,1l3.4,0l1.9,.4l1-.4" fill="none" stroke="#292525" stroke-width="1.2"></path><path d="M-498.7,304.2l7.2-1l2.4-1" fill="none" stroke="#292525" stroke-width="1.1"></path><path d="M-503.5,293.1l2.9,.5l3.3,0l8.2,.9" fill="none" stroke="#292525" stroke-width="1.1"></path><path d="M-458.8,291.7l1-2.9l-1-2.4l-2.4-2l-3.3,.5l-4.4,2.4l-5.7,8.2l-1,6.3l1.9,4.3l3.9,2.9l6.7,.5l3.4-1.5" fill="none" stroke="#292525" stroke-width="1.4"></path><path d="M-448.6,299.8l0,1l-.5,1l-1,.4l-1-.4l0-1l.5-1l1,0l0,1l-1,1.4l-.9,0l0-1.9" fill="none" stroke="#292525" stroke-width="1.3"></path><path d="M-438.1,291.2l0,1.9l-5.7,14.4l-1,3.9l1,0" fill="none" stroke="#292525" stroke-width="1.3"></path><path d="M-441.9,290.7l3.4-1.9l3.3-1.5l3.9-.9l4.3,.9l1,2.4l-.5,3.4l-2.9,3.8l-4.8,3.9l-6.8,3.4l1,0l2.4,.4l7.7,3.4l2.4,1.5l1.9,.9l.5,.5" fill="none" stroke="#292525" stroke-width="1.6"></path><path d="M-410.2,308.5l2,.5l4.3,0l1.4-.5" fill="none" stroke="#292525" stroke-width=".9"></path><path d="M-414.5,304.6l11.1,0" fill="none" stroke="#292525" stroke-width="1"></path><path d="M-402.9,296.9l-1,0l1.4,2l2.5,.9l5.2,2.9l1,2.9l-2.4,2.9l-6.7,4.3l-1.5,1.5" fill="none" stroke="#292525" stroke-width="1.3"></path><path d="M-639.7,271l-.5,2.8l-1.9,35.7l1,1.9l4.3,2.9l3.8,.9l2-.9l.5-.5" fill="none" stroke="#292525" stroke-width="1.4"></path><path d="M-639.2,266.6l1.4-.5l13.5,0" fill="none" stroke="#292525" stroke-width="1"></path><path d="M-427.5,257.5l6.8,0l5.3,.5l8.1,1.4l2,1.9l-.5,2.4l-4.8,10.1l-2.9,8.7l-3.4,14.9l-1.4,14.9l0,5.8l-1.5,6.3l0,2.4l-.5,1.4l0-1.4l-.9-.5l-.5-1.4l-1-1" fill="none" stroke="#292525" stroke-width="1.2"></path><path d="M-419.3,339.3l2.4-2.9l1.9-2.9l1-2.9l0-2.9l-1.4,1l-1,1.9l.5,1.5l.9,.5l2-.5l.9-1l.5-.9l-1,.9l-2.4,5.3l.5,1l1,0" fill="none" stroke="#292525" stroke-width="1.2"></path><path d="M-408.7,334.5l1.4-1l0-2.9l-1.4,1l-1.5,1.9l-.9,1.5l0,1.4l.9,1.4l1.5-.4l1.9-1l1-1.4l0-2.9l-.5-1.5l-1-.4l1.5,.4l1.4,0l1.5-.4l.9-.5l0,5.3l-.5,1.4l-1.4,1l-1.4,0l0-1.5l1.4-.9l1.4-.5l1,1.9l.5,.5" fill="none" stroke="#292525" stroke-width="1.1"></path><path d="M-397.2,328.7l.5,1.9l0,2l-.5,1.9l0,1.4l.5-1.4l1-1.5l.5-.9l0,1.9l-.5,1.4l.5,1l2.9-2.9l.4-1.9l1-1l0,2l-.5,1.4l.5,1.4l.5,0" fill="none" stroke="#292525" stroke-width="1"></path><path d="M-386.6,336.4l1,.5l1,0" fill="none" stroke="#292525" stroke-width="1"></path><path d="M-369.3,272.4l1,0l1,1.4l-.5,7.7l-9.6,28.4l1.9,7.7l4.3,2.4l5.3,0l5.3-1.4l2.9-1.9l.5-.5" fill="none" stroke="#292525" stroke-width="1.3"></path><path d="M-365.4,265.2l3.8-1l6.3-.5l5.3,0" fill="none" stroke="#292525" stroke-width=".9"></path><path d="M-349.5,289.7l-5.8,8.7l-1,4.8l2,1.9l2.9,1l2.8-.5l4.4-2.9l1.4-2.9l-.9-3.8l-2.9-3.4l-2.9-2.4l-3.4-.5l-1,1" fill="none" stroke="#292525" stroke-width="1.4"></path><path d="M-348.6,301.3l.5,.9l.5,2l1.4,2.9l1.5,1.9l1.9,1.9" fill="none" stroke="#292525" stroke-width="1.2"></path><path d="M-336.5,302.7l4.3,0l2.9,.5" fill="none" stroke="#292525" stroke-width="1"></path><path d="M-338,299.4l2.4-.5l4.4,0l2.9,.5l.9,0" fill="none" stroke="#292525" stroke-width="1"></path><path d="M-309.6,295l1-.9l.5-1l-.5-1.4l-1.5-.5l-4.3,.9l-4.3,3.4l-2.9,4.8l-1,4.3l3.9,3.9l4.3,0l3.9-1l2.4-1.9" fill="none" stroke="#292525" stroke-width="1.4"></path><path d="M-301.9,301.8l-.9-.5l0-1l0,1.5l-1,.4l-.5-1.4l.5-1" fill="none" stroke="#292525" stroke-width="1.1"></path><path d="M-297.5,291.7l0,1.9l-1,10.1l0,3.8l.5,2.9l1.4,1.5l6.3-11.1l2.4-5.3l.5-1.9l0-.5" fill="none" stroke="#292525" stroke-width="1.4"></path><path d="M-297.1,271.9l-.9-.9l1.9-1l2.9-.5l3.8,.5l10.1,0l-1.4,44.8l-1,1.9l-1.4,.5l-3.4-.5l-2.4-1l-1.4-.9l-.5-.5" fill="none" stroke="#292525" stroke-width="1.6"></path><path d="M-278.8,327.3l1-.5l1.9-2.4l1.4-2.4l1-2.9l0-1.9l-1-1l-.9,1l-.5,.9l0,1l1.4,0l2-1l1.9-1.4l1-1l-2.4,4.8l-.5,2.9l0,1.5l.9,.9" fill="none" stroke="#292525" stroke-width="1.3"></path><path d="M-266.3,319.1l-1.9,.9l-1.4,1.5l-.5,2.9l.5,1.4l1.9,0l1.9-1.4l1.9-2.9l.5-1.9l-.5-2l-.9-.9l-1,0l0,.9l2.4,0l2.4-1.4l.5,1l1,2.8l0,1.5l-1,1.9l-1,1.5l-1.9,.9l-.5-1.4l1.5-1l1.4,0l1.5,.5l.4,1l.5-.5" fill="none" stroke="#292525" stroke-width="1.5"></path><path d="M-257.1,318.6l.9-1.9l1,.5l0,1.4l-.5,2.4l0,4.3l1-.4l1.9-5.3l.5,1.4l-.5,1.5l.5,.9l.9,0l1-.5l2.4-1.9l1.5-1.4l.9-1l-1.4,2.9l-.5,1.4l.5,1.5l1.9,0" fill="none" stroke="#292525" stroke-width="1.3"></path><path d="M-239.3,324.4l.9,.9l.5-.4" fill="none" stroke="#292525" stroke-width="1.4"></path><path d="M-625.7,349.4l-4.4,5.8l-3.3,5.3l-2,4.3l.5,3.4l3.9,2.4l4.3,0l5.8-1" fill="none" stroke="#292525" stroke-width="1.4"></path><path d="M-625.3,363.8l2,1.5l5.3,1.9l.4,1l-1.4,2.4l-8.2,6.7l-.5,1" fill="none" stroke="#292525" stroke-width="1.3"></path><path d="M-608.4,373l1,0l0-1l-2,.5l-1.9,2.4l-1,3.4l.5,2.9l1.5,.4l1.9-.4l1.9-2l1-1.9l0-2.9l-1-1.4l-.9-.5l2.4,0l1.4-1l1-1.4l-1,1.4l-.5,1.5l0,1.4l1.9,.5l2-.5l1.4-1.4l.5-1l-2.4,3.9l-.5,2.4l.5,.9l2.4-.4" fill="none" stroke="#292525" stroke-width="1.4"></path><path d="M-593.5,369.1l0,9.7l.5,1.4l.5,.5" fill="none" stroke="#292525" stroke-width="1.3"></path><path d="M-588.2,359.5l0,3.9" fill="none" stroke="#292525" stroke-width=".9"></path><path d="M-585.3,376.8l1.4-1.4l.5-1.9l.5-2.9l-1.5-.5l-1.4,1.9l-1,2.9l0,3.9l1.5,.9l2.4,0l1-.5" fill="none" stroke="#292525" stroke-width="1.2"></path><path d="M-578.1,368.2l1-1l.9,1.9l0,2.9l-1.9,8.7l0,.9l1-1.4l2.4-4.3l1.9-4.8l-.5,2.4l0,2.8l2.4,0" fill="none" stroke="#292525" stroke-width="1.3"></path><path d="M-561.3,353.2l-6.2,14.5l-1,5.8l0,3.3l.5,1.5l.5-.5" fill="none" stroke="#292525" stroke-width="1.4"></path><path d="M-560.3,371.1l1,.9l.9,.5l0-1l-1.9-1.9l-1.9-.5l-1.5,1.5l-1.4,2.9l-.5,4.8l1,1.4l1.9,.5l1.9-1l1.5-1.4l1.4-3.4l0-2.4l.5-.9l-.5,1.9l0,3.3l.5,1.5l1.9,0" fill="none" stroke="#292525" stroke-width="1.3"></path><path d="M-550.2,369.1l1,3.9l.5,1.4l.9,0l0-1.4l-.5-2.4l-.9-2l-1.9,0l-1,2l-1,3.3l.5,3.4l1.5,2.4l3.8,.5l1.4-1.9l1-2.4" fill="none" stroke="#292525" stroke-width="1.3"></path><path d="M-550.2,361.4l.5-.9l1-.5l4.3,0l1.4,.5" fill="none" stroke="#292525" stroke-width="1.1"></path><path d="M-545.9,374.4l0,1l1-1.9l1.5-2l1.4-2.4l0,1l-1.4,10.6l.9-.5l3.4-7.2l.9-2.4l.5-1l.5,1l-.5,2.9l0,3.8l1,1l1,0l2.8-3.9l1-3.3l.5-1l0,7.2l.9,1.9l1.5,1" fill="none" stroke="#292525" stroke-width="1.2"></path><path d="M-526.6,363.4l.5-1.5l0-2.9l.5-2.4l0,.5" fill="none" stroke="#292525" stroke-width="1.1"></path><path d="M-521.3,373l0,3.3l-.5,3.9l-1.9,8.7" fill="none" stroke="#292525" stroke-width="1.2"></path><path d="M-516.5,381.6l1.4-.4l2-2l2.9-4.8l.9-3.3l0-2l-.5-.9l-.9,.4l-.5,2l2.9,.5l1.9-.5l1.4-1l.5,1l-.5,2.4l-2.8,5.8l-1.5,1.9l-.9,.5l0-1.5l1.4-2.4l1-1.4l.9,.4l1,2l1.4,1.9l.5,0" fill="none" stroke="#292525" stroke-width="1.3"></path><path d="M-500.6,373.9l2.9,1l1.4-.5l1-1.4l.5-1.5l0-1.9l-2-1l-1.9,1l-1.4,2.9l-1,4.3l1.4,3.9l2.4,.9l2.9-.9l1.5-1" fill="none" stroke="#292525" stroke-width="1.3"></path><path d="M-493.4,371.1l0,2.8l1,3.4l1.9,1.9l1.9,1.5l1.9,.5" fill="none" stroke="#292525" stroke-width="1.2"></path><path d="M-491,363.8l-1-3.8l0-2.4l1-1.5l.5,0" fill="none" stroke="#292525" stroke-width="1.3"></path><path d="M-485.2,378.8l.9-1.5l1-2.4l1-3.8l.9-2l0,1.5l-.9,7.2l.4,1l2-2l1.4-3.3l.5-2.4l.5-1.5l0,9.6l.9,.5l1.5-1.4l2.9-3.4l.9-3.8l0,2.4l-.9,2.8l0,2l.5,.9" fill="none" stroke="#292525" stroke-width="1.2"></path><path d="M-466.9,375.9l2.4,.4l1.4-.9l2.4-3.4l1-2.4l-1-1.9l-.9-1l-2.9,2.4l-1.5,3.9l0,3.8l1.5,2.4l2.4,0l1.9-1.4" fill="none" stroke="#292525" stroke-width="1.3"></path><path d="M-464.5,359l.9,0l2-.5l2.4,0l3.3-.4" fill="none" stroke="#292525" stroke-width="1.3"></path><path d="M-456.8,369.6l0,1.5l.5,1.9l2.8-6.8l.5,1.5l-1.9,9.6l.5,1.9l.9,.5l1-1.4l1.9-3.9l1-2.9l1-1.9l.9,1.5l0,4.3l1,1.4l.5,.5" fill="none" stroke="#292525" stroke-width="1.3"></path><path d="M-439.5,367.7l0,.9l.5,2l.5,1.4l-.5-1.9l-2.9-2.9l-1.9,.5l-2,3.8l-.4,3.4l.9,2.4l1,1l1.9-.5l2.9-2.9l1-1.9l.4-1l1.5,2.4l.9,2.4l1,2" fill="none" stroke="#292525" stroke-width="1.3"></path><path d="M-419.8,368.6l0-.9l-.5,2.4l.5,26.5l-.9,2.4l-2,0l-2.4-2l-1.9-8.6" fill="none" stroke="#292525" stroke-width="1.5"></path><path d="M-419.8,359l1,1l0,1.4" fill="none" stroke="#292525" stroke-width=".9"></path><path d="M-413.5,377.3l1.4-4.3l0-1.9l-.9,1.4l-1,3.4l-.5,5.3l1.5,1.9l1.4,.5l2.4-1.5l1-1.4" fill="none" stroke="#292525" stroke-width="1.2"></path><path d="M-402.5,372l0,1l.5,2.4l1,1.9l1,1l.9-.5l-.5-1l-.4-1.9l-1-2.4l-1.9-1.4l-2,.9l-1.9,3.4l-.9,3.8l.4,2.9l2.9,.5l2.4-1.9l2.9-3.4l5.3-10.6l2.4-7.7l-2.4,4.8l-4.3,15.4l0,2.9l.5,1" fill="none" stroke="#292525" stroke-width="1.3"></path><path d="M-395.2,381.6l.9-1.9l2-2.4l2.8-4.3l1.5-1.5l-.5,2.4l-1.9,7.3l0,.9l2.4-1.4l2.4-3.4l1-1.9l0-1l0,3.4l.4,1.9l.5,.5" fill="none" stroke="#292525" stroke-width="1.2"></path><path d="M-376.9,374.9l.4,1.4l-1.4,0l-1.9,.5l-1,2l0,1.9l1.4,1.4l2,0l1.4-.5l1-1.4l0-2.9l-1-1l.5-.9l2.9-2.4l1.4-1.9" fill="none" stroke="#292525" stroke-width="1.2"></path><path d="M-363,357.1l-5.3,14.9l-1.4,7.2l.4,1.5" fill="none" stroke="#292525" stroke-width="1.2"></path><path d="M-364.9,379.2l.5,1l1.4-.5l1.4-.9l1.5-2l1.4-2.4l.5-3.3l-.5-1l-1.4,.5l-3.9,8.2l.5,2.8l1,1l1.9-.5" fill="none" stroke="#292525" stroke-width="1.3"></path><path d="M-350.5,367.2l1.9-1.4l2-2.4l2.9-4.4l.4-2.4l0-1.4l-1.4,0l-3.9,3.8l-4.8,9.2l-.5,3.8l1.5,2.9l1.4,0l2-1l2.4-2.4l-1.5,1.5l-1.9,2.4l-2.4,2.4l-2.9,3.8l2.4-.9l1,0l.5,2.4l.9,1.4l1-.5" fill="none" stroke="#292525" stroke-width="1.4"></path><path d="M-333.2,379.2l0-1.9l-.9-1.4l-2.4-1.5l-1.5,1l-1.9,2.4l-1,3.4l.5,2.8l2.9,1.5l2.4-1l1.9-1.4l.5-1.9l2.9,4.3" fill="none" stroke="#292525" stroke-width="1.4"></path><path d="M-321.6,386l1.4-1.5l4.4-7.7l.9-2.9l0-1.9l-.9,1l-2,7.2l.5,3.8l1.5,2.5l2.9-.5l3.8-5.8l.5-3.4l0-2.9l-.5,2l1,1.9l2.9,.5l1.4-1l1-1.4l0-1.5l-1.5-.5l-2.9,4.9l-.5,3.3l1,2.4l1.9,.5" fill="none" stroke="#292525" stroke-width="1.2"></path><path d="M-296.6,372l1.9,.5l3.4-2.4l3.4-3.9l2.4-4.3l.9-5.3l-.9-1.4l-5.8,6.2l-4.3,8.2l-2.9,11.1l1.4,3.3l2.4,.5" fill="none" stroke="#292525" stroke-width="1.3"></path><path d="M-287,373l0,1.9l-.9,1.4l-1,2.9l.5,1.5l1,0" fill="none" stroke="#292525" stroke-width="1.2"></path><path d="M-278.8,362.4l0-1l-.5,1.5" fill="none" stroke="#292525" stroke-width="1"></path><path d="M-274.5,373.5l.5,.9l1-.5l-.5-.9l-1-.5l-1.4,.5l-2.9,3.3l-.5,2.9l1,2l2.4,.9l3.9-1.9" fill="none" stroke="#292525" stroke-width="1.4"></path><path d="M-274.5,364.8l2,0l2.4-.5l2.4,0l2.4,.5" fill="none" stroke="#292525" stroke-width="1.2"></path><path d="M-267.7,375.4l.5-1.5l.4,2l-.4,2.4l.4,2.9l1,.4" fill="none" stroke="#292525" stroke-width="1.2"></path><path d="M-260.5,361.4l0-.9l-1,1.9l-.4,1.4" fill="none" stroke="#292525" stroke-width="1"></path><path d="M-262.9,379.7l1-.5l5.3-8.1l-1.5,4.3l-1.9,4.3l0,1.5l5.3-4.4l.9-1.9l1,6.3l0,.9" fill="none" stroke="#292525" stroke-width="1.4"></path><path d="M-183,463l2,1l-1-2l-2-2l-2-1l-4,1l-6,10l-3,9l0,7l4,2l5-4l6-10l5-12l3-10l2-10l1-2l0,2l-2,6l-1,1" fill="none" stroke="#388ad6" stroke-width="2.9"></path><path d="M-170,435l-2,5l-6,24l-2,12l0,10l1,1" fill="none" stroke="#388ad6" stroke-width="2.8"></path><path d="M-167,466l0-4l-2,6l-2,11l0,3l3-1l3-3l3-5l3-4l1-3l-2,6l0,3" fill="none" stroke="#388ad6" stroke-width="2.6"></path><path d="M-156,462l-3,9l-1,8l0,34l-1,5l-2,1l-3-1l-6-6l-1-6l2-6l2-3" fill="none" stroke="#388ad6" stroke-width="2.6"></path><path d="M-152,472l1-3l3-2l1,2l1,4l-1,9l-1,5l-1,2l7-15l3-9l1,5l0,9l1,3l2,2l1-1" fill="none" stroke="#388ad6" stroke-width="2.5"></path><path d="M-120,467l1,2l2,3l-3-1l-3-2l-3,2l-3,4l-1,5l2,4l3,1l4-2l4-4l2-4l1-4l-1-3l0,2l-1,5l1,7l2,2l3,0l3-4l2-4l2-8l1-2l0,16l2,1l2-1l3-10l0-2l1,4l0,7l2,0l2-1l5-10l1-3l1,2l0,8l1,2l2,0l4-4l3-5l1-5l1-3l0,4l-2,12l1,4l3,1l1-2" fill="none" stroke="#388ad6" stroke-width="2.4"></path><path d="M-67,444l-1,5" fill="none" stroke="#388ad6" stroke-width="1.8"></path><path d="M-53,468l2-2l0-2l-4-4l-2,1l-4,6l-2,6l1,6l6,2l7-3l4-3" fill="none" stroke="#388ad6" stroke-width="2.3"></path><path d="M-35,442l3-4l4-8l1-4l-1-2l-2,1l-4,5l-5,12l-2,9l1,7l3,5l4,2l3,0l2-2l-1,4l-6,11l-1,4l-1-2l2-7l2-3l2-1l3,4l2,4l3,2l2-1" fill="none" stroke="#388ad6" stroke-width="2.7"></path><path d="M-12,460l2,1l2,3l3,1l2,1l-3-1l-5-1l-2,2l-3,4l0,4l1,3l3,2l5-2l3-3l1-4l0-3l0,6l2,5l4,2l5,0l2-2" fill="none" stroke="#388ad6" stroke-width="2.6"></path><path d="M13,467L11,433L10,428L10,426L9,426" fill="none" stroke="#388ad6" stroke-width="2.1"></path><path d="M39,466l3-2l2-3l1-4l0-2l-3,2l-5,5l-2,5l0,3l5,3l5,0l3,1l-1,3l-12,3l-2,0" fill="none" stroke="#388ad6" stroke-width="2.8"></path><path d="M58,454l0-3l-4,38l0,11l1,6l2-2l5-24l3,3l2,4" fill="none" stroke="#388ad6" stroke-width="2.6"></path><path d="M76,471l2,2l2,1l0-4l-1-3l-2-1l-3,1l-4,7l-2,7l1,5l3,2l4-1l6-7l2-7l0-6l-2-5l-2-2l-1,2l0,3l2,1l3-2l4-5l6-10l3-13l-2,4l-6,26l-1,12l1,7l4,0" fill="none" stroke="#388ad6" stroke-width="2.4"></path><path d="M99,466l4-8l1-5l-2-1l-2,3l-1,4l1,4l3,2l3-1l1-2l1-3l-3,4l-2,6l-1,7l2,4l3-2l2-2" fill="none" stroke="#388ad6" stroke-width="2.4"></path><path d="M105,442l4-2l4,0l2,1l1,2" fill="none" stroke="#388ad6" stroke-width="2"></path><path d="M115,470l2-5l1-4l0-2l-3,7l0,12l2,3l4-2" fill="none" stroke="#388ad6" stroke-width="2.4"></path><path d="M123,459l4-1l5-6l3-6l2-6l0-7l-1-2l-3,4l-4,9l-2,14l1,18l5,5l4,1l3-4l3-11l1-7l-1-5l-2,1l1,3l4,1l5,0l3,1l4,2l-6-3l-3-1l-3,2l-3,9l1,7l3,3l5,2l5-3l5-6l1-4l-1-2l0,7l3,7l5,4l4,2" fill="none" stroke="#388ad6" stroke-width="2.6"></path><path d="M-215,499l2,1l21,2l323-21l4,2l-6,2" fill="none" stroke="#388ad6" stroke-width="3.2"></path><path d="M33,168l-3,3l2,3l7,2l20,1l261-4l-1-2" fill="none" stroke="#c72c18" stroke-width="3.3"></path><path d="M-144,563l0-5l-2,68l1,16l3,11l0-1" fill="none" stroke="#388ad6" stroke-width="2.8"></path><path d="M-145,553l-2-2l-2,4l-8,26l0,4l4-3l5-8l8-16l2-5l1,2l1,5l2,7l3,6l4,5" fill="none" stroke="#388ad6" stroke-width="2.7"></path><path d="M-150,650l350,0" fill="none" stroke="#388ad6" stroke-width="3.4"></path><path d="M-138,589l-2,0l-3,1l-2,0l-2,1l2,0l3,1l7,0l10,1l36-4l2,0l-1-1" fill="none" stroke="#388ad6" stroke-width="3"></path><path d="M-90,594l0-2l7,0l3,1l2,0l3,2l1,3l2,2l1,3l1,2l2,3l1,3l1,2l0,3l1,2l1,4l2,4l0,3l3,6l2,3l2,2l4,2l3,1l11,0" fill="none" stroke="#388ad6" stroke-width="3.4"></path><path d="M-45,647l7,2l8,0l23,3l5-1l3,0l1-1" fill="none" stroke="#388ad6" stroke-width="3.2"></path><path d="M-40,643l-1,2l-5,0l-2-1l38,0l10,1l2,1l2-1" fill="none" stroke="#388ad6" stroke-width="3"></path><path d="M1,643L3,643L5,644L11,644" fill="none" stroke="#388ad6" stroke-width="2.7"></path><path d="M46,590L44,589L42,589L39,590L33,590L27,593L25,595L25,597L23,601L22,604L22,624L21,627L21,630L20,633L20,635L18,639L14,643L12,644L9,643L7,641" fill="none" stroke="#388ad6" stroke-width="3"></path><path d="M38,591l-1-2l7,2l12,0l18-2l11,2l2,0l0,1" fill="none" stroke="#388ad6" stroke-width="2.7"></path><path d="M91,591l4,0l2,4l0,2l2,6l0,15l1,2l0,7l2,4l0,2l1,2l0,2l3,2l5,5l4,1l2,1l3,0l1-1" fill="none" stroke="#388ad6" stroke-width="3"></path><path d="M221,641l1-2l-3,3l-2,5l-1,5l0,5l2,3l4,2l3-1l3-2l2-3" fill="none" stroke="#388ad6" stroke-width="2.8"></path><path d="M216,648l15,0" fill="none" stroke="#388ad6" stroke-width="2.4"></path><path d="M201,637l2,3l3,2l3,1l3,2l1,2l-2,4l-4,6l-10,10" fill="none" stroke="#388ad6" stroke-width="2.9"></path><path d="M-186,540l-1-3l0-2l2,7l2,13l2,7l2,0l5-11l4-14l0-2l0,1" fill="none" stroke="#388ad6" stroke-width="3.1"></path><path d="M-144,692l-1-2l0,36l3,27l1,3l1-2l-1-6" fill="none" stroke="#388ad6" stroke-width="2.8"></path><path d="M-154,700l0,4l2,0l2-2l4-9l2-7l2-5l1-2l2,6l0,6l1,5l2,4l0,1" fill="none" stroke="#388ad6" stroke-width="2.7"></path><path d="M-150,750l250,0" fill="none" stroke="#388ad6" stroke-width="3.4"></path><path d="M100,750l100,0" fill="none" stroke="#388ad6" stroke-width="3.6"></path><path d="M198,733l-4-1l-3,0l8,4l7,2l8,5l0,2l-3,4l-18,13l-2,2l1,0" fill="none" stroke="#388ad6" stroke-width="3.1"></path><path d="M234,726l1-2l1,4l-1,5l-3,9l1,4l3,2l5,1l6,0l5-2l0-2" fill="none" stroke="#388ad6" stroke-width="2.9"></path><path d="M228,737l2-1l8,0l5,1l2,0" fill="none" stroke="#388ad6" stroke-width="2.4"></path><path d="M-81,752l-2,0l2,0l2-1l2,1l2,4l0,2l2,6l0,46l1,2l0,7l1,2l2,1l2,0l2-1l4-6l5-9l0-2l2-6l1-2l1-3l1-2l0-2l2-4l0-2l1-3l0-4l1-2l0-2l1-2l1-3l0-3l1-2l1-3l0-2l1-2l1-3l-1-2l-1,1" fill="none" stroke="#388ad6" stroke-width="3.5"></path><path d="M4,741L5,743L4,745L4,749L3,747L2,746" fill="none" stroke="#388ad6" stroke-width="2.2"></path><path d="M-1,747L-1,748" fill="none" stroke="#388ad6" stroke-width="1.6"></path><path d="M0,747L.39724758291874357,747" fill="none" stroke="#388ad6" stroke-width="1.6"></path><path d="M9,743L9,745L12,737L13,732L15,727L17,719L17,695L18,692L18,690L19,688L21,685L22,683L24,683L26,684L28,686L29,691L29,694L30,697L30,700L31,705L31,717L34,727L35,732L36,735L37,737L39,740L41,742L43,743L45,745L48,747L51,748L53,750L55,751L56,751" fill="none" stroke="#388ad6" stroke-width="3.3"></path><path d="M82,753l0-2l2,2l2,1l1,2l2,2l0,5l1,2l0,12l1,3l0,13l1,2l0,14l1,2l1,3l0,4l1,2l2,1l6-3l1-2l2-3l2-1l1-2l1-3l1-2l3-9l0-3l1-2l0-2l1-2l0-2l2-7l0-6l2-9l1-3l2-2l5-8l4-4" fill="none" stroke="#388ad6" stroke-width="3.4"></path><path d="M-69,612l1,3l0,2" fill="none" stroke="#388ad6" stroke-width="2"></path><path d="M-70,642l1,3l0,6l1,3l0,1" fill="none" stroke="#388ad6" stroke-width="1.7"></path><path d="M-66,679l1,0" fill="none" stroke="#388ad6" stroke-width="1.6"></path><path d="M-66,690l-2,4l0,2l1,1" fill="none" stroke="#388ad6" stroke-width="2.2"></path><path d="M-68,723l0,5l-1,3l0,3" fill="none" stroke="#388ad6" stroke-width="1.6"></path><path d="M-70,816l0-4l1-4l0-1" fill="none" stroke="#388ad6" stroke-width="1.7"></path><path d="M-67,797l0-2l1-3l1-5l0-2l1-2l0-2l-1-3l0-3l1-5l0-6l-3-6l-2-3" fill="none" stroke="#388ad6" stroke-width="1.7"></path><path d="M-72,741l0-14" fill="none" stroke="#388ad6" stroke-width="1.6"></path><path d="M-72,718l1-1" fill="none" stroke="#388ad6" stroke-width="1.6"></path><path d="M24,743l0,2l-1,2l0-3" fill="none" stroke="#388ad6" stroke-width="1.9"></path><path d="M24,720l0-4l1-4l0-2" fill="none" stroke="#388ad6" stroke-width="1.6"></path><path d="M25,699l-1-3l3-10l0-10" fill="none" stroke="#388ad6" stroke-width="1.6"></path><path d="M24,644l0-10l-1-3l0-2l-1-3l0-2l-1-6l0-4l-1-4l0-2" fill="none" stroke="#388ad6" stroke-width="1.6"></path><path d="M102,615l-1,2l0,3" fill="none" stroke="#388ad6" stroke-width="1.6"></path><path d="M100,805l1,2l-1,2l0,2l0-3" fill="none" stroke="#388ad6" stroke-width="2.1"></path><path d="M101,795l1-4l0-4l-2-4" fill="none" stroke="#388ad6" stroke-width="1.7"></path><path d="M99,766l.39724758291874,0" fill="none" stroke="#388ad6" stroke-width="1.6"></path><path d="M99,743l0-2l1-3l0-3" fill="none" stroke="#388ad6" stroke-width="1.6"></path><path d="M98,713l0-4l1-3l1-2" fill="none" stroke="#388ad6" stroke-width="1.7"></path><path d="M100,693l0-13" fill="none" stroke="#388ad6" stroke-width="1.6"></path><path d="M99,669l0-11l-1-3l0-1" fill="none" stroke="#388ad6" stroke-width="1.6"></path><path d="M98,649l0-6" fill="none" stroke="#388ad6" stroke-width="1.6"></path><path d="M100,632l0-3" fill="none" stroke="#388ad6" stroke-width="1.6"></path><path d="M100,615l1-1" fill="none" stroke="#388ad6" stroke-width="1.6"></path><path d="M-176,673l0,2l-3,3l-1,3l-1,5l1,2l4,1l3-2l2-3" fill="none" stroke="#388ad6" stroke-width="2.8"></path><path d="M-176,664l2,1" fill="none" stroke="#388ad6" stroke-width="1.6"></path><path d="M-162,686l2,0l0-2l-2,0l-4,3l-2,5l1,2l2,2l4,0l3-3" fill="none" stroke="#388ad6" stroke-width="2.7"></path><path d="M307,563l2,2l0,3l-2,5l-2,7l-3,8l-2,3" fill="none" stroke="#388ad6" stroke-width="3"></path><path d="M302,558l-4,0l4-1l7,0l5,2l5,3l3,4l1,6l-1,3l-2,2l-4,1l-6,1l-9,0l1-1" fill="none" stroke="#388ad6" stroke-width="3.2"></path><path d="M319,592l-1-2l-4-1l-3,2l-2,5l-1,4l1,3l5,1l3-2l3-3l2-7l-1,2l0,8l2,1l3-3l3-8l1-2l-2,10l1,3l2,1l3,0l5-7l0-3l1-2l3,1" fill="none" stroke="#388ad6" stroke-width="2.9"></path><path d="M351,594l3-1l0,2l-4-1l-2-1l-2,2l-2,3l-1,4l2,3l2,0l3-1l3-3l1-4l-1-4l-1-2l0,9l5,15l1,6l-1,4l-3,2l-4,0l-4-2l-3-3l-1-4l2-6l1-1" fill="none" stroke="#388ad6" stroke-width="3"></path><path d="M361,589l19,0" fill="none" stroke="#388ad6" stroke-width="2.3"></path><path d="M364,577l3,0l6,1l7,0l6,1" fill="none" stroke="#388ad6" stroke-width="2.4"></path><path d="M402,564l3-4l4-4l5-7l1-2l-4,16l0,7l1,4l2,1" fill="none" stroke="#388ad6" stroke-width="2.9"></path><path d="M399,583l2,1l10,0l13-3l2,0" fill="none" stroke="#388ad6" stroke-width="2.9"></path><path d="M417,593l-2,4l-1,6l-2,6l0,7l0-1" fill="none" stroke="#388ad6" stroke-width="2.7"></path><path d="M404,592l10,0l9-2l9-1l8,0l1,1" fill="none" stroke="#388ad6" stroke-width="3"></path><path d="M458,576l1-2l3-8l1-6l0-10l-2-1l-6,9l-2,15l1,9l2,8l3,7l2,13l-3,4l-3,0l-4-2l-3-5l1-7" fill="none" stroke="#388ad6" stroke-width="3.2"></path><path d="M477,607l0-2l-2,2l-5,9l1,5l6,2l4-2l4-4l1-7l0-2l-4-3l-2-1l0,1" fill="none" stroke="#388ad6" stroke-width="3"></path><path d="M490,545l-6,17l-1,5l0,3l1,1" fill="none" stroke="#388ad6" stroke-width="2.9"></path><path d="M476,547l21,0l4,1" fill="none" stroke="#388ad6" stroke-width="2.4"></path><path d="M500,598l-1,2l1-2l3-3l4-6l5-10l1-4l-5,13l-1,7l1,5l3,2l2,0l4-6l1-5l1-3l0-2l9,0" fill="none" stroke="#388ad6" stroke-width="3"></path><path d="M536,617l-3-5l-2-6l0-7l1-9l3-7l1,0" fill="none" stroke="#388ad6" stroke-width="2.6"></path><path d="M547,592l-2,0l-3,5l-2,10l2,4l5,2l4,0l3-3" fill="none" stroke="#388ad6" stroke-width="2.5"></path><path d="M534,601l23,0" fill="none" stroke="#388ad6" stroke-width="2.3"></path><path d="M558,585l3,2l4,8l0,14l-1,6l-1,3l-1-1" fill="none" stroke="#388ad6" stroke-width="2.9"></path><path d="M581,589l-2,1l0-2l0,2l1-3l0,1" fill="none" stroke="#388ad6" stroke-width="2.8"></path><path d="M598,587l2-3l0,3l-2,5l-2,7l1,4l2,2l3-1l2-3" fill="none" stroke="#388ad6" stroke-width="2.7"></path><path d="M601,574l0-2l-1,3l3-4l1-2l-1,3l0,2" fill="none" stroke="#388ad6" stroke-width="2.5"></path><path d="M619,612l-1-3l0-4l-1-9l1-5l2-4l2-2" fill="none" stroke="#388ad6" stroke-width="2.4"></path><path d="M632,589l-4,5l-2,5l-1,5l1,5l1,3l5,1l3-1l2-1l3-2" fill="none" stroke="#388ad6" stroke-width="2.6"></path><path d="M622,599l13,0l3,1" fill="none" stroke="#388ad6" stroke-width="2.5"></path><path d="M643,585l4,4l4,7l1,6l-1,7l-2,5l-2,4l-1,1" fill="none" stroke="#388ad6" stroke-width="3"></path><path d="M676,592l0-3l-2-2l-2-1l-5,4l-4,5l-1,6l1,4l6,2l6-2l11-14l7-23l1-7l1-3l-12,33l-1,10l2,6l4,1l1-2" fill="none" stroke="#388ad6" stroke-width="3"></path><path d="M708,574l-4,6l-3,6l-3,8l-2,7l2,7l4,0l6-2l9-5l-1-1" fill="none" stroke="#388ad6" stroke-width="3.1"></path><path d="M693,593l15,0l5-1l2,1" fill="none" stroke="#388ad6" stroke-width="2.6"></path><path d="M46,584l1,1" fill="none" stroke="#388ad6" stroke-width="1.6"></path><path d="M48,608l1,2l0,2l1,1" fill="none" stroke="#388ad6" stroke-width="1.6"></path><path d="M50,635l0,7" fill="none" stroke="#388ad6" stroke-width="1.7"></path><path d="M50,659l1,2l0,4l1,4l0,2" fill="none" stroke="#388ad6" stroke-width="1.8"></path><path d="M52,689l0,9" fill="none" stroke="#388ad6" stroke-width="1.9"></path><path d="M51,711l1,3l0,9" fill="none" stroke="#388ad6" stroke-width="2.2"></path><path d="M51,733l0,3l-1,2l0,3" fill="none" stroke="#388ad6" stroke-width="1.8"></path><path d="M51,754l-1,2l0,2l-1,2l0,2" fill="none" stroke="#388ad6" stroke-width="1.6"></path><path d="M52,778l1,3l-1,2" fill="none" stroke="#388ad6" stroke-width="1.9"></path><path d="M51,805l0,7" fill="none" stroke="#388ad6" stroke-width="1.6"></path><path d="M55,825l-1,1" fill="none" stroke="#388ad6" stroke-width="1.8"></path><path d="M44,840l0,5l3-6l2-3l1-3l2,1l2,3l2,4l4,5l1,2l0,1" fill="none" stroke="#388ad6" stroke-width="3"></path><path d="M53,837l0,7l-1,6l0,8l1,3l0,2" fill="none" stroke="#388ad6" stroke-width="2.8"></path><path d="M53,876l0,4l-1,7l0,5l-1,3l0,1" fill="none" stroke="#388ad6" stroke-width="3"></path><path d="M44,876l-2-1l5,1l6-1l9,0l-5,0l-10,1l-5,1l3,0" fill="none" stroke="#388ad6" stroke-width="3"></path><path d="M56,871l-2,0l-1,3l-1,2l0,4l-2,5l0,6l1,6l2,1l2-3" fill="none" stroke="#388ad6" stroke-width="3.1"></path><path d="M44,875l-1-2l4,0l3-1l7-1l3-1l-3,0l-5,1l-5,0l-2,1l1,0" fill="none" stroke="#388ad6" stroke-width="3.5"></path><path d="M47,875l-2,1l2,1l7,0l8-1l3-1l-2,1l-8,1l-8,0l1,0" fill="none" stroke="#388ad6" stroke-width="3.2"></path><path d="M71,888l17,0" fill="none" stroke="#388ad6" stroke-width="2.5"></path><path d="M82,881l3,1l2,1l3,1l1,4l-1,3l-5,5" fill="none" stroke="#388ad6" stroke-width="2.3"></path><path d="M99,892l12-20l0-3l0,3l-2,7l-2,14l2,2" fill="none" stroke="#388ad6" stroke-width="2.8"></path><path d="M118,893l2-4l3-8l0-2l0,9l-1,10l0,8l2,6l0-9l-1-10l2-5l2-2l6,0l3,1l2-2l0-2l-2-2l-2,1l-1,3l0,4l3,4l4,0" fill="none" stroke="#388ad6" stroke-width="2.7"></path><path d="M145,883l1-3l0,2l1,2l2,0l1-3l-2,6l0,4l3,1l1-1" fill="none" stroke="#388ad6" stroke-width="2.6"></path><path d="M158,877l0,8l1,3l4,0" fill="none" stroke="#388ad6" stroke-width="2.3"></path><path d="M166,860l0-3l0,4" fill="none" stroke="#388ad6" stroke-width="2"></path><path d="M175,882l-2-4l-2-1l-2,2l-2,4l-1,4l1,4l3,1l3-1l2-2l0-9l-1-2l2,2l3,1l9,0l-3-2l-2,0l-2,2l-2,3l0,6l2,1l2,0l3-2l3-4l3-8l1-6l0-10l-3,9l-1,8l0,7l3,5l2,0" fill="none" stroke="#388ad6" stroke-width="2.8"></path><path d="M200,875l1,4l4,4l0-2l-2-2l-3-1l-2,0l-3,4l-1,4l1,3l2,1l4-1l2-3l1-2l3,5l3,2" fill="none" stroke="#388ad6" stroke-width="2.6"></path><path d="M377,653l0,4l0-3l3-4l3-3l1,4l0,11l1,2l2-1l5-8l0-4" fill="none" stroke="#388ad6" stroke-width="3.1"></path><path d="M371,683l2-9l2,0l2,2l3,9l2,2l2,0l4-3l4-7l1-3l1,1" fill="none" stroke="#388ad6" stroke-width="3.1"></path><path d="M421,665l6-11l2-5l2-3l-1,3l-2,14l0,9l1,1" fill="none" stroke="#388ad6" stroke-width="2.9"></path><path d="M415,679l5,1l12,0l5,1l1,1" fill="none" stroke="#388ad6" stroke-width="3"></path><path d="M427,686l0,3l-2,12l0,7l0-2" fill="none" stroke="#388ad6" stroke-width="2.8"></path><path d="M417,686l24,0l-8,0l-6,1l-7,0l1,1" fill="none" stroke="#388ad6" stroke-width="3.6"></path><path d="M470,669l2,2l2,0l1-2l1-5l-1-5l-4-1l-5,4l-6,9l-4,10l0,11l4,2l8-1l8-4l2-3" fill="none" stroke="#388ad6" stroke-width="2.9"></path><path d="M482,699l3-1l3-3l3-4l1-5l0-5l-2-2l-2,1l-3,4l-2,5l0,4l1,5l2,3l6,0" fill="none" stroke="#388ad6" stroke-width="2.6"></path><path d="M499,690l-3,0l-5,6l-1,4l1,3l5-1l4-2l2-4l1-4l-1-3l1,2l1-1" fill="none" stroke="#388ad6" stroke-width="2.5"></path><path d="M509,689l3,3l2,1l-3-3l-3-1l-2,1l-2,7l2,3l2,0l3-1l2-3l1-4l0-2l0,5l3,2l3-3" fill="none" stroke="#388ad6" stroke-width="2.6"></path><path d="M522,685l2,1l1,2l3,3l-3-3l-2-1l-3,3l-1,6l3,2l5-5l3-4l2-5l0-10l0,3l-2,13l1,6l2,0" fill="none" stroke="#388ad6" stroke-width="2.6"></path><path d="M547,651l-1-2l1,2l2,3l4,11l2,8l2,12l2,6l2,2l3-6l10-31l1,1" fill="none" stroke="#388ad6" stroke-width="3.5"></path><path d="M579,680l1-2l1,2l0,4l-1,5l0,9" fill="none" stroke="#388ad6" stroke-width="2.5"></path><path d="M575,684l2-2l3,0l3-1l4,2l1,3l0,5l-2,2l-6,1l-4,1l-2-1l-1,0" fill="none" stroke="#388ad6" stroke-width="2.7"></path><path d="M591,683l2,3l0,9" fill="none" stroke="#388ad6" stroke-width="2.8"></path><path d="M590,681l6,0l3,1l2,2l1,5l-1,3l-2,1l-2,0l-3-1l-3-3l0-1" fill="none" stroke="#388ad6" stroke-width="2.7"></path><path d="M594,647l2-2l2-1l2,0l1,3l-1,5l-6,11l5-1l5,0l3-1l2,1" fill="none" stroke="#388ad6" stroke-width="3.1"></path></svg>